<svg xmlns="http://www.w3.org/2000/svg" xml:space="preserve" width="508.031" height="549.556"><path fill="#482713" d="m10.003 433.172 7.794-18.551 490.06 67.07v18.395z" opacity=".3"/><path fill="#7E4620" d="M205.822.027 0 348.621l508.031 64.125-.015-12.731-482.06-61.318L220.438.011z"/><path fill="#482713" d="M8.627 421.143.002 348.602l508.028 64.132-.131 76.887z"/><path fill="#331B0F" d="M37.782 340.161 228.615 0h-8.191L25.958 338.708z"/><path fill="#BA9C30" d="M37.782 340.161 228.615 0l279.319.069.082 399.946z"/><path fill="#F9CD11" d="m200.077 360.806 47.857-117.978 151.724 16.551-29.737 123.06zM101.75 226.164l146.184 16.664 42.068-107.587-129.891-13.125zM207.082 38.426 228.615 0l116.229.042-19.669 48.992zm82.92 96.815 35.173-86.207 121.38 11.724-20 86.897zm217.985-70.172-61.432-4.311L461.727.069h46.207zm0 206.807V155.899l-81.432-8.244-26.897 111.724z"/><path fill="#482713" d="M37.782 340.161 228.615 0l9.663.069L49.313 340.758z" opacity=".15"/><g fill="#151037" fill-rule="evenodd" clip-rule="evenodd" opacity=".2"><path d="M251.58 57.059c-1.839-.585-5.114 1.688-4.632 4.218.256 1.342 1.006 2.02 2.052 3.771s11.208 12.661 17.763 19.567c18.737 19.74 35.209 35.203 51.993 57.993 15.238 20.689 22.644 40.521 5 60.992-22.139 25.688-65.533 43.325-102.987 57.993-38.685 15.15-77.665 31.609-104.986 55.993-29.767 26.565-46.947 63.604-59.993 100.987-13.951 39.981-22.167 79.619-29.996 130.983h80.99c3.061-36.607 8.576-71.844 13.998-105.986 5.226-32.908 10.311-68.685 24.997-94.988 20.379-36.5 71.217-54.823 113.985-71.991 38.757-15.558 80.964-34.364 103.987-61.992 6.515-7.817 14.08-21.157 13.998-31.996-.121-15.951-12.77-30.055-21.997-40.995-29.408-34.863-63.718-56.845-99.146-82.208-.001-.001-3.446-1.838-5.026-2.341"/><path d="M348.753 66.617c4.167-1.082 31.641 19.034 43.994 27.997 29.028 21.06 52.669 37.814 76.99 63.992 10.7 11.517 25.376 27.426 25.997 43.995.52 13.89-7.717 25.007-14.998 33.995-22.573 27.867-58.51 45.199-94.988 60.992-36.11 15.635-80.673 32.348-100.987 62.992-27.995 42.232-17.434 124.472-22.997 188.977h-80.99c1.716-43.953 8.288-80.997 16.998-113.986 8.887-33.652 18.69-64.178 40.995-89.988 41.64-48.184 116.799-61.76 172.978-97.987 15.164-9.778 40.438-27.903 40.995-48.994.341-12.881-11.782-28.976-19.997-38.995-18.884-23.029-37.523-39.259-58.993-58.992-9.643-8.863-28.635-27.877-27.996-30.996.4-1.963 1.076-2.503 2.999-3.002"/></g><g fill="#262261" fill-rule="evenodd" clip-rule="evenodd"><path d="M242.58 50.059c-1.839-.585-5.114 1.688-4.632 4.218.256 1.342 1.006 2.02 2.052 3.771s11.208 12.661 17.763 19.567c18.737 19.74 35.209 35.203 51.993 57.993 15.238 20.689 22.644 40.521 5 60.992-22.139 25.688-65.533 43.325-102.987 57.993-38.685 15.15-77.665 31.609-104.986 55.993-29.767 26.565-46.947 63.604-59.993 100.987-13.951 39.981-22.167 79.619-29.996 130.983h80.99c3.061-36.607 8.576-71.844 13.998-105.986 5.226-32.908 10.311-68.685 24.997-94.988 20.379-36.5 71.217-54.823 113.985-71.991 38.757-15.557 80.964-34.364 103.987-61.992 6.515-7.818 14.08-21.158 13.998-31.996-.121-15.951-12.77-30.055-21.997-40.995-29.408-34.863-63.718-56.845-99.146-82.208-.001-.001-3.446-1.838-5.026-2.341"/><path d="M339.753 59.617c4.167-1.082 31.641 19.034 43.994 27.997 29.028 21.06 52.669 37.814 76.99 63.992 10.7 11.517 25.376 27.426 25.997 43.995.52 13.89-7.717 25.007-14.998 33.996-22.573 27.866-58.51 45.199-94.988 60.992-36.11 15.635-80.673 32.348-100.987 62.992-27.995 42.232-17.434 124.472-22.997 188.977h-80.99c1.716-43.953 8.288-80.997 16.998-113.986 8.887-33.652 18.69-64.178 40.995-89.988 41.64-48.184 116.799-61.76 172.978-97.987 15.164-9.778 40.438-27.903 40.995-48.994.341-12.881-11.782-28.976-19.997-38.995-18.884-23.029-37.523-39.259-58.993-58.992-9.643-8.863-28.635-27.877-27.996-30.996.4-1.964 1.076-2.504 2.999-3.003"/></g></svg>